<?xml version="1.0" encoding="iso-8859-1"?>
<!-- Generator: Adobe Illustrator 16.0.0, SVG Export Plug-In . SVG Version: 6.00 Build 0)  -->
<!DOCTYPE svg PUBLIC "-//W3C//DTD SVG 1.1//EN" "http://www.w3.org/Graphics/SVG/1.1/DTD/svg11.dtd">
<svg version="1.1" id="Capa_1" xmlns="http://www.w3.org/2000/svg" xmlns:xlink="http://www.w3.org/1999/xlink" x="0px" y="0px"
	 width="205.764px" height="205.765px" viewBox="0 0 205.764 205.765" style="enable-background:new 0 0 205.764 205.765;"
	 xml:space="preserve">
<g>
	<path d="M118.796,48.871h-0.427c6.894-4.874,11.424-12.869,11.424-21.954C129.793,12.053,117.737,0,102.876,0
		C88.019,0,75.953,12.053,75.953,26.917c0,9.085,4.533,17.08,11.423,21.954h-0.42c-22.676,0-41.132,19.848-41.132,44.247v19.859
		c0,6.881,5.587,12.471,12.471,12.471s12.471-5.59,12.471-12.471V93.118c0-4.652,1.44-8.866,3.754-12.203v112.378
		c0,6.881,5.587,12.471,12.471,12.471s12.471-5.59,12.471-12.471v-51.191h6.844v51.191c0,6.881,5.587,12.471,12.468,12.471
		c6.887,0,12.471-5.59,12.471-12.471V80.909C133.556,84.243,135,88.46,135,93.112v19.859c0,6.887,5.584,12.471,12.471,12.471
		s12.471-5.584,12.471-12.471V93.112C159.917,68.719,141.466,48.871,118.796,48.871z"/>
</g>
<g>
</g>
<g>
</g>
<g>
</g>
<g>
</g>
<g>
</g>
<g>
</g>
<g>
</g>
<g>
</g>
<g>
</g>
<g>
</g>
<g>
</g>
<g>
</g>
<g>
</g>
<g>
</g>
<g>
</g>
</svg>
